<?xml version="1.0" standalone="no"?>
<!DOCTYPE svg PUBLIC "-//W3C//DTD SVG 20010904//EN"
 "http://www.w3.org/TR/2001/REC-SVG-20010904/DTD/svg10.dtd">
<svg version="1.0" xmlns="http://www.w3.org/2000/svg"
 width="260.000000pt" height="260.000000pt" viewBox="0 0 260.000000 260.000000"
 preserveAspectRatio="xMidYMid meet">
<metadata>
Created by potrace 1.14, written by Peter Selinger 2001-2017
</metadata>
<g transform="translate(0.000000,260.000000) scale(0.100000,-0.100000)"
fill="#000000" stroke="none">
<path d="M0 1300 l0 -1300 1300 0 1300 0 0 1300 0 1300 -1300 0 -1300 0 0
-1300z m2590 0 l0 -1290 -1290 0 -1290 0 0 1290 0 1290 1290 0 1290 0 0 -1290z"/>
<path d="M506 2308 c148 -150 389 -394 535 -541 l265 -268 544 540 545 540
-1080 0 -1080 1 271 -272z"/>
<path d="M21 1318 c-1 -593 2 -1078 6 -1078 4 0 174 166 378 368 203 202 443
440 533 527 89 87 162 161 162 165 0 3 -243 251 -539 550 l-540 545 0 -1077z"/>
<path d="M2040 1830 l-535 -529 45 -47 c25 -26 54 -57 65 -69 11 -12 233 -236
493 -498 l472 -477 0 1075 c0 591 -1 1075 -2 1075 -2 -1 -244 -239 -538 -530z"/>
<path d="M873 678 c-235 -233 -482 -477 -548 -541 l-120 -116 1084 -1 1084 0
-418 423 c-230 232 -471 476 -536 541 l-117 119 -429 -425z"/>
</g>
</svg>
